<svg width="40" height="40" viewBox="0 0 40 40" fill="none" xmlns="http://www.w3.org/2000/svg">
<path d="M23.75 3.76665L23.6166 3.69998L23.6 3.73331C22.4333 3.48331 21.2333 3.33331 20 3.33331C10.8 3.33331 3.33331 10.8 3.33331 20C3.33331 29.2 10.8 36.6666 20 36.6666C29.2 36.6666 36.6666 29.2 36.6666 20C36.6666 12.0833 31.15 5.46665 23.75 3.76665ZM32.35 15H19.0333L23.55 7.16665C27.55 8.26665 30.8 11.2 32.35 15ZM21.8333 6.79998L17.1166 15L15.2 18.3333L10.6666 10.5C13.1513 8.04252 16.5054 6.66495 20 6.66665C20.6166 6.66665 21.2333 6.71665 21.8333 6.79998ZM9.49998 11.8166L14.2333 20L16.15 23.3333H7.09998C6.83331 22.2666 6.66665 21.15 6.66665 20C6.66665 16.9166 7.73331 14.0833 9.49998 11.8166ZM7.64998 25H20.95L16.4333 32.8333C14.4693 32.2829 12.657 31.2911 11.1348 29.9335C9.61253 28.5759 8.42061 26.8885 7.64998 25ZM18.1666 33.1833L24.8166 21.6666L29.35 29.5C26.857 31.9551 23.4989 33.3318 20 33.3333C19.3666 33.3333 18.7666 33.2666 18.1666 33.1833ZM30.5 28.1833L23.8333 16.6666H32.8833C33.1666 17.7333 33.3333 18.85 33.3333 20C33.3333 23.0833 32.2666 25.9166 30.5 28.1833Z" fill="#3C3C3C"/>
</svg>
